<svg width="243" height="42" viewBox="0 0 243 42" fill="none" xmlns="http://www.w3.org/2000/svg">
<path d="M11.98 7.88C11.86 10.44 11.8 12.9 11.8 15.26C11.8 17.7 11.96 21.28 12.28 26C12.32 26.72 12.4 28.18 12.52 30.38C12.64 32.54 12.7 34.52 12.7 36.32C13.1 36.28 13.52 36.22 13.96 36.14C14.44 36.06 14.8 36.02 15.04 36.02C15.92 36.02 16.62 36.24 17.14 36.68C17.66 37.12 17.92 37.8 17.92 38.72C17.92 39.32 17.68 39.78 17.2 40.1C16.72 40.42 15.88 40.66 14.68 40.82C13.52 40.94 11.82 41 9.58 41C7.1 41 5.24 40.92 4 40.76C2.76 40.6 1.9 40.3 1.42 39.86C0.94 39.38 0.7 38.68 0.7 37.76C0.7 37.08 0.92 36.62 1.36 36.38C1.8 36.14 2.42 36.02 3.22 36.02L4.48 36.08L6.46 36.2L6.16 29.12C5.92 25.28 5.8 21.76 5.8 18.56C5.8 16.84 5.86 14.48 5.98 11.48L6.1 8.18C4.74 8.26 3.68 8.3 2.92 8.3C2.04 8.3 1.44 8.14 1.12 7.82C0.84 7.5 0.7 6.84 0.7 5.84C0.7 4.72 1.46 4 2.98 3.68C4.54 3.36 6.9 3.2 10.06 3.2C12.5 3.2 14.32 3.28 15.52 3.44C16.76 3.6 17.38 3.96 17.38 4.52C17.38 5.88 17.08 6.78 16.48 7.22C15.92 7.62 14.82 7.82 13.18 7.82L11.98 7.88ZM30.2828 31.7C30.2828 33.22 30.5028 34.4 30.9428 35.24C31.4228 36.04 32.0228 36.44 32.7428 36.44C33.1428 36.44 33.5228 36.42 33.8828 36.38C34.2428 36.3 34.6028 36.26 34.9628 36.26C35.3628 36.26 35.7028 36.46 35.9828 36.86C36.3028 37.26 36.4628 37.7 36.4628 38.18C36.4628 39.14 36.0028 39.9 35.0828 40.46C34.2028 40.98 33.0028 41.24 31.4828 41.24C30.4028 41.24 29.3028 40.92 28.1828 40.28C27.1028 39.6 26.2028 38.56 25.4828 37.16C24.7628 35.72 24.4028 33.94 24.4028 31.82C24.4028 27.26 24.4828 23.4 24.6428 20.24C24.8428 16.48 24.9428 11.74 24.9428 6.02C24.9428 4.22 25.0428 2.96 25.2428 2.24C25.4828 1.68 25.8628 1.26 26.3828 0.979997C26.9428 0.659998 27.5228 0.499999 28.1228 0.499999C28.7228 0.499999 29.2428 0.599999 29.6828 0.799999C30.1628 0.999999 30.4828 1.32 30.6428 1.76C30.8028 2.24 30.9028 2.72 30.9428 3.2C31.0228 3.64 31.0628 4.28 31.0628 5.12C31.0628 6.76 31.0028 8.34 30.8828 9.86C30.8028 11.7 30.7628 13.04 30.7628 13.88C30.4428 20.92 30.2828 26.86 30.2828 31.7ZM47.275 31.7C47.275 33.22 47.495 34.4 47.935 35.24C48.415 36.04 49.015 36.44 49.735 36.44C50.135 36.44 50.515 36.42 50.875 36.38C51.235 36.3 51.595 36.26 51.955 36.26C52.355 36.26 52.695 36.46 52.975 36.86C53.295 37.26 53.455 37.7 53.455 38.18C53.455 39.14 52.995 39.9 52.075 40.46C51.195 40.98 49.995 41.24 48.475 41.24C47.395 41.24 46.295 40.92 45.175 40.28C44.095 39.6 43.195 38.56 42.475 37.16C41.755 35.72 41.395 33.94 41.395 31.82C41.395 27.26 41.475 23.4 41.635 20.24C41.835 16.48 41.935 11.74 41.935 6.02C41.935 4.22 42.035 2.96 42.235 2.24C42.475 1.68 42.855 1.26 43.375 0.979997C43.935 0.659998 44.515 0.499999 45.115 0.499999C45.715 0.499999 46.235 0.599999 46.675 0.799999C47.155 0.999999 47.475 1.32 47.635 1.76C47.795 2.24 47.895 2.72 47.935 3.2C48.015 3.64 48.055 4.28 48.055 5.12C48.055 6.76 47.995 8.34 47.875 9.86C47.795 11.7 47.755 13.04 47.755 13.88C47.435 20.92 47.275 26.86 47.275 31.7ZM56.4072 20.78C56.0872 20.78 55.7872 20.66 55.5072 20.42C55.2672 20.14 55.1472 19.82 55.1472 19.46C55.1472 18.54 55.5472 17.68 56.3472 16.88C56.5872 16.76 57.0672 16.56 57.7872 16.28C58.5072 16 59.1472 15.86 59.7072 15.86C61.2272 15.86 62.4672 16.28 63.4272 17.12C64.3872 17.92 64.8672 19.08 64.8672 20.6C64.8672 21.04 64.7872 21.98 64.6272 23.42C64.4672 25.1 64.3872 26.4 64.3872 27.32C64.3872 30.12 64.7672 32.38 65.5272 34.1C65.8072 34.66 66.2472 35.1 66.8472 35.42C67.4472 35.74 67.9872 35.9 68.4672 35.9C69.6272 35.9 70.5672 35.7 71.2872 35.3C72.0072 34.9 72.7872 34.26 73.6272 33.38C74.4672 32.5 75.0072 31.5 75.2472 30.38C75.5272 29.26 75.7272 27.72 75.8472 25.76C75.9272 24.48 76.0072 23.54 76.0872 22.94C76.2872 21.02 76.3872 19.38 76.3872 18.02C76.3872 17.14 76.6272 16.42 77.1072 15.86C77.5872 15.26 78.2472 14.96 79.0872 14.96C79.5672 14.96 80.1072 15.12 80.7072 15.44C81.3472 15.72 81.7672 16.06 81.9672 16.46C82.2072 16.86 82.3272 17.52 82.3272 18.44C82.3272 18.92 82.2672 19.38 82.1472 19.82C81.8672 20.82 81.7272 22.02 81.7272 23.42L81.7872 26.54C81.7872 29.38 81.9872 31.48 82.3872 32.84C82.5872 33.48 82.8672 34.14 83.2272 34.82C83.5872 35.46 83.9272 36 84.2472 36.44C85.0472 37.32 85.5672 37.94 85.8072 38.3C86.0472 38.62 86.1672 38.94 86.1672 39.26C86.1672 39.74 85.9272 40.2 85.4472 40.64C85.0072 41.04 84.5272 41.24 84.0072 41.24C82.5272 41.24 81.2472 40.74 80.1672 39.74C79.0872 38.74 78.2872 37.44 77.7672 35.84C76.4072 37.4 75.1472 38.66 73.9872 39.62C73.1872 40.18 72.2072 40.6 71.0472 40.88C69.8872 41.12 68.7272 41.24 67.5672 41.24C66.0072 41.24 64.4272 40.6 62.8272 39.32C61.2272 38.04 60.1472 36.56 59.5872 34.88C59.5472 34.8 59.4272 34.48 59.2272 33.92C59.0672 33.36 58.9872 32.52 58.9872 31.4C58.9872 29.92 59.0672 28.06 59.2272 25.82C59.3472 24.38 59.4072 23.06 59.4072 21.86C59.4072 21.5 59.2672 21.2 58.9872 20.96C58.7472 20.72 58.4672 20.6 58.1472 20.6C57.9072 20.6 57.6272 20.64 57.3072 20.72C57.0272 20.76 56.7272 20.78 56.4072 20.78ZM127.011 30.44L127.251 25.82C127.251 24.14 127.051 22.9 126.651 22.1C126.291 21.3 125.451 20.9 124.131 20.9C121.611 20.9 119.711 22.32 118.431 25.16C117.151 27.96 116.511 32.06 116.511 37.46C116.511 37.7 116.511 38.2 116.511 38.96C116.551 39.68 116.431 40.24 116.151 40.64C115.911 41.04 115.471 41.24 114.831 41.24C113.231 41.24 112.151 40.8 111.591 39.92C111.031 39.04 110.751 37.74 110.751 36.02C110.751 35.14 110.871 33.34 111.111 30.62C111.311 28.7 111.411 27.36 111.411 26.6C111.411 24.6 111.111 23.14 110.511 22.22C109.911 21.3 108.871 20.84 107.391 20.84C105.671 20.84 104.251 21.7 103.131 23.42C102.011 25.14 101.191 27.28 100.671 29.84C100.151 32.36 99.8913 34.86 99.8913 37.34C99.8913 38.5 99.6913 39.44 99.2913 40.16C98.9313 40.88 98.2313 41.24 97.1913 41.24C96.4313 41.24 95.6713 41.04 94.9113 40.64C94.1513 40.2 93.7713 39.62 93.7713 38.9C93.7713 38.14 93.8513 37.38 94.0113 36.62C94.2113 35.38 94.3713 33.56 94.4913 31.16C94.6113 28.76 94.6713 26.5 94.6713 24.38C94.6713 23.42 94.4313 22.5 93.9513 21.62C93.5113 20.7 92.9713 20.24 92.3313 20.24C92.1713 20.24 91.8713 20.32 91.4313 20.48C91.0313 20.64 90.7313 20.72 90.5313 20.72C90.0113 20.72 89.5313 20.48 89.0913 20C88.6913 19.52 88.4913 19.12 88.4913 18.8C88.4913 17.8 88.9713 16.96 89.9313 16.28C90.9313 15.56 91.9713 15.2 93.0513 15.2C94.5313 15.2 95.8113 15.7 96.8913 16.7C98.0113 17.7 98.8513 19.04 99.4113 20.72C100.371 19 101.491 17.66 102.771 16.7C104.091 15.7 105.691 15.2 107.571 15.2C111.011 15.2 113.511 16.74 115.071 19.82C115.991 18.34 117.411 17.2 119.331 16.4C121.291 15.6 123.211 15.2 125.091 15.2C126.451 15.2 127.751 15.62 128.991 16.46C130.231 17.26 131.211 18.34 131.931 19.7C132.691 21.02 133.071 22.4 133.071 23.84C133.071 24.76 132.971 26.78 132.771 29.9C132.731 30.42 132.691 31 132.651 31.64C132.611 32.24 132.591 32.88 132.591 33.56C132.591 34.4 132.791 35.08 133.191 35.6C133.631 36.12 134.191 36.44 134.871 36.56C136.231 36.88 136.911 37.44 136.911 38.24C136.911 39.16 136.491 39.9 135.651 40.46C134.811 40.98 133.871 41.24 132.831 41.24C130.871 41.24 129.371 40.68 128.331 39.56C127.331 38.4 126.831 36.74 126.831 34.58L127.011 30.44ZM144.279 2.48C145.679 2.6 146.899 2.98 147.939 3.62C148.979 4.22 149.499 5.14 149.499 6.38C149.499 7.3 149.059 8.04 148.179 8.6C147.339 9.12 146.319 9.38 145.119 9.38C143.959 9.38 143.159 9.08 142.719 8.48C142.279 7.88 142.059 7.26 142.059 6.62C142.059 5.42 142.179 4.42 142.419 3.62C142.699 2.82 143.319 2.44 144.279 2.48ZM149.079 29.06V30.8C149.079 32.36 149.119 33.84 149.199 35.24C149.319 36.6 149.459 37.98 149.619 39.38C149.619 39.86 149.339 40.3 148.779 40.7C148.219 41.06 147.699 41.24 147.219 41.24C146.459 41.24 145.679 41.1 144.879 40.82C144.119 40.5 143.659 40.12 143.499 39.68C143.259 38.4 143.139 37.26 143.139 36.26C143.139 32.98 143.039 29.3 142.839 25.22C142.679 21.62 142.599 19.1 142.599 17.66C142.599 16.94 142.959 16.32 143.679 15.8C144.399 15.28 145.159 15.02 145.959 15.02C147.119 15.02 147.919 15.28 148.359 15.8C148.839 16.32 149.079 17.14 149.079 18.26V29.06ZM183.931 36.38C184.131 36.46 184.451 36.56 184.891 36.68C185.331 36.8 185.651 36.92 185.851 37.04C186.051 37.16 186.151 37.34 186.151 37.58C186.191 38.54 185.831 39.34 185.071 39.98C184.351 40.58 183.491 40.88 182.491 40.88C180.931 40.88 179.711 40.46 178.831 39.62C177.951 38.78 177.311 37.5 176.911 35.78C176.751 35.1 176.671 34.16 176.671 32.96C176.671 32.28 176.711 31.18 176.791 29.66C176.871 28.06 176.911 26.78 176.911 25.82C176.911 24.42 176.511 23.2 175.711 22.16C174.951 21.08 173.871 20.54 172.471 20.54C171.631 20.54 170.751 20.8 169.831 21.32C168.911 21.8 168.271 22.4 167.911 23.12C167.311 24.28 166.891 25.54 166.651 26.9C166.211 29.3 165.991 31.8 165.991 34.4C165.991 35.64 166.011 36.6 166.051 37.28C166.051 37.44 166.051 37.76 166.051 38.24C166.091 38.68 166.051 39.1 165.931 39.5C165.851 39.86 165.691 40.2 165.451 40.52C165.251 40.72 164.931 40.88 164.491 41C164.091 41.16 163.711 41.24 163.351 41.24C162.791 41.24 162.091 41 161.251 40.52C160.411 40.04 159.931 39.5 159.811 38.9L159.751 37.88C159.751 37.52 159.791 37.1 159.871 36.62C160.351 33.82 160.591 31.38 160.591 29.3C160.591 28.38 160.571 27.66 160.531 27.14L160.471 24.32C160.471 23.36 160.231 22.44 159.751 21.56C159.271 20.64 158.711 20.18 158.071 20.18C157.871 20.18 157.591 20.26 157.231 20.42C156.871 20.54 156.571 20.6 156.331 20.6C155.931 20.6 155.491 20.4 155.011 20C154.571 19.6 154.351 19.18 154.351 18.74C154.351 17.9 154.631 17.22 155.191 16.7C155.791 16.22 156.371 15.84 156.931 15.56C157.531 15.28 158.211 15.14 158.971 15.14C159.611 15.14 160.131 15.2 160.531 15.32C160.931 15.44 161.471 15.7 162.151 16.1C162.511 16.3 162.931 16.74 163.411 17.42C163.891 18.1 164.291 19.06 164.611 20.3C165.651 18.38 166.931 17.04 168.451 16.28C170.011 15.48 171.991 15.08 174.391 15.08C175.311 15.08 176.291 15.38 177.331 15.98C178.411 16.58 179.331 17.28 180.091 18.08C180.811 18.96 181.411 20.06 181.891 21.38C182.371 22.66 182.611 23.82 182.611 24.86C182.611 25.46 182.571 26.44 182.491 27.8C182.371 28.88 182.311 30.02 182.311 31.22C182.311 34.02 182.851 35.74 183.931 36.38ZM214.136 21.74C214.456 22.3 214.716 23.12 214.916 24.2C215.116 25.24 215.216 26.18 215.216 27.02C215.216 28.14 215.036 29.54 214.676 31.22C214.316 32.86 214.016 33.96 213.776 34.52C211.616 39 207.456 41.24 201.296 41.24C199.336 41.24 197.416 40.6 195.536 39.32C193.656 38 192.316 36.46 191.516 34.7L191.096 33.5C191.056 33.34 190.836 32.74 190.436 31.7C190.076 30.62 189.896 29.8 189.896 29.24C189.896 27.6 190.296 25.7 191.096 23.54C191.896 21.38 192.816 19.66 193.856 18.38C194.536 17.46 195.836 16.68 197.756 16.04C199.676 15.36 201.376 15.02 202.856 15.02C205.616 15.02 207.836 15.54 209.516 16.58C211.236 17.62 212.776 19.34 214.136 21.74ZM208.616 31.4C208.776 31.12 208.916 30.62 209.036 29.9C209.156 29.18 209.216 28.34 209.216 27.38C209.216 26.22 208.996 25.08 208.556 23.96C208.156 22.84 207.556 21.88 206.756 21.08C206.716 21 206.576 20.88 206.336 20.72C206.096 20.52 205.716 20.34 205.196 20.18C204.676 19.98 204.016 19.88 203.216 19.88C201.656 19.88 200.336 20.34 199.256 21.26C198.176 22.18 197.356 23.32 196.796 24.68C196.276 26.04 196.016 27.38 196.016 28.7C196.016 29.06 196.136 29.8 196.376 30.92C196.616 32.04 196.796 32.76 196.916 33.08C197.236 33.64 197.856 34.3 198.776 35.06C199.696 35.78 200.736 36.14 201.896 36.14C203.696 36.14 205.096 35.72 206.096 34.88C207.136 34.04 207.976 32.88 208.616 31.4ZM237.765 28.04C238.085 28.24 238.705 28.62 239.625 29.18C240.585 29.7 241.225 30.32 241.545 31.04C241.865 31.76 242.025 32.76 242.025 34.04C242.025 35.48 241.605 36.76 240.765 37.88C239.925 38.96 238.845 39.8 237.525 40.4C236.605 40.8 235.605 41.04 234.525 41.12C233.485 41.2 232.225 41.24 230.745 41.24C229.945 41.24 228.905 41.12 227.625 40.88C226.385 40.64 225.525 40.42 225.045 40.22C223.765 39.5 222.685 38.66 221.805 37.7C220.925 36.74 220.485 35.76 220.485 34.76C220.485 33.96 220.745 33.32 221.265 32.84C221.785 32.36 222.465 32.12 223.305 32.12C223.745 32.12 224.165 32.24 224.565 32.48C225.005 32.68 225.305 32.92 225.465 33.2C225.905 34.24 226.645 35.02 227.685 35.54C228.725 36.06 229.785 36.32 230.865 36.32C234.665 36.32 236.565 35.64 236.565 34.28C236.565 33.92 236.465 33.64 236.265 33.44C236.105 33.2 235.865 32.96 235.545 32.72C235.025 32.36 234.285 31.98 233.325 31.58C232.405 31.18 231.585 30.88 230.865 30.68C229.225 30.32 227.625 29.78 226.065 29.06C224.625 28.34 223.445 27.4 222.525 26.24C221.605 25.04 221.145 23.58 221.145 21.86C221.145 20.82 221.525 19.8 222.285 18.8C223.085 17.76 224.005 16.98 225.045 16.46C225.765 16.18 226.945 15.88 228.585 15.56C230.225 15.24 231.345 15.08 231.945 15.08C232.865 15.08 233.865 15.18 234.945 15.38C236.025 15.54 236.845 15.82 237.405 16.22C238.485 16.86 239.365 17.54 240.045 18.26C240.725 18.94 241.065 19.72 241.065 20.6C241.065 21.04 240.965 21.52 240.765 22.04C240.565 22.52 240.325 22.82 240.045 22.94C239.445 23.22 238.745 23.36 237.945 23.36C237.585 23.36 237.285 23.26 237.045 23.06C236.845 22.86 236.565 22.54 236.205 22.1C235.765 21.42 235.345 21.02 234.945 20.9C234.465 20.78 233.765 20.64 232.845 20.48C231.925 20.28 231.305 20.18 230.985 20.18C229.985 20.18 229.025 20.38 228.105 20.78C227.225 21.18 226.785 21.72 226.785 22.4C226.785 23.2 227.445 23.88 228.765 24.44C229.605 24.84 230.525 25.18 231.525 25.46C232.565 25.74 233.205 25.92 233.445 26C234.005 26.12 234.725 26.4 235.605 26.84C236.525 27.28 237.245 27.68 237.765 28.04Z" fill="white"/>
</svg>
